<svg width="30" height="30" viewBox="0 0 30 30" fill="none" xmlns="http://www.w3.org/2000/svg">
<path d="M16.9245 22.5C16.3329 22.5007 15.759 22.2977 15.2995 21.925L8.92452 16.6625C8.67453 16.4635 8.47264 16.2106 8.33387 15.9228C8.19511 15.635 8.12305 15.3195 8.12305 15C8.12305 14.6805 8.19511 14.365 8.33387 14.0772C8.47264 13.7894 8.67453 13.5365 8.92452 13.3375L15.2995 8.075C15.6833 7.76749 16.1458 7.57398 16.6342 7.51652C17.1226 7.45906 17.6173 7.53995 18.062 7.74999C18.4485 7.92034 18.7778 8.19834 19.0105 8.55077C19.2432 8.9032 19.3696 9.31518 19.3745 9.7375V20.2625C19.3696 20.6848 19.2432 21.0968 19.0105 21.4492C18.7778 21.8017 18.4485 22.0796 18.062 22.25C17.7051 22.4136 17.3172 22.4988 16.9245 22.5Z" fill="white"/>
</svg>
