<svg width="12" height="16" viewBox="0 0 12 16" fill="none" xmlns="http://www.w3.org/2000/svg">
<path d="M8.92452 15.5C8.33288 15.5007 7.75905 15.2977 7.29952 14.925L0.924521 9.66249C0.674528 9.46347 0.472638 9.21064 0.333874 8.9228C0.19511 8.63496 0.123047 8.31953 0.123047 7.99999C0.123047 7.68045 0.19511 7.36503 0.333874 7.07719C0.472638 6.78935 0.674528 6.53652 0.924521 6.33749L7.29952 1.075C7.68331 0.767488 8.14577 0.573977 8.63419 0.516516C9.12261 0.459055 9.61734 0.539954 10.062 0.749995C10.4485 0.920344 10.7778 1.19834 11.0105 1.55077C11.2432 1.9032 11.3696 2.31518 11.3745 2.7375V13.2625C11.3696 13.6848 11.2432 14.0968 11.0105 14.4492C10.7778 14.8017 10.4485 15.0796 10.062 15.25C9.70505 15.4136 9.31719 15.4988 8.92452 15.5Z" fill="white"/>
</svg>
