<svg width="30" height="30" viewBox="0 0 30 30" fill="none" xmlns="http://www.w3.org/2000/svg">
<rect x="0.5" y="0.5" width="29" height="29" rx="14.5" fill="#B70E0E"/>
<rect x="0.5" y="0.5" width="29" height="29" rx="14.5" stroke="#B70E0E"/>
<path d="M13.6079 17.972C13.6079 17.522 13.6349 17.114 13.6889 16.748C13.7489 16.376 13.8749 16.016 14.0669 15.668C14.2409 15.332 14.4479 15.059 14.6879 14.849C14.9279 14.633 15.1859 14.426 15.4619 14.228C15.7379 14.03 16.0109 13.787 16.2809 13.499C16.5209 13.229 16.6799 12.959 16.7579 12.689C16.8359 12.413 16.8749 12.122 16.8749 11.816C16.8749 11.546 16.8419 11.303 16.7759 11.087C16.7159 10.865 16.6139 10.676 16.4699 10.52C16.2539 10.25 15.9839 10.064 15.6599 9.962C15.3419 9.86 15.0089 9.809 14.6609 9.809C14.3309 9.809 14.0189 9.854 13.7249 9.944C13.4369 10.034 13.1969 10.175 13.0049 10.367C12.8129 10.541 12.6719 10.754 12.5819 11.006C12.4919 11.252 12.4469 11.519 12.4469 11.807H10.7729C10.8089 11.285 10.9319 10.79 11.1419 10.322C11.3579 9.848 11.6549 9.458 12.0329 9.152C12.3869 8.852 12.7919 8.633 13.2479 8.495C13.7039 8.351 14.1629 8.279 14.6249 8.279C15.2369 8.279 15.8159 8.372 16.3619 8.558C16.9139 8.744 17.3729 9.053 17.7389 9.485C18.0209 9.791 18.2309 10.142 18.3689 10.538C18.5069 10.934 18.5759 11.351 18.5759 11.789C18.5759 12.323 18.4679 12.821 18.2519 13.283C18.0419 13.745 17.7569 14.162 17.3969 14.534C17.1989 14.75 16.9829 14.948 16.7489 15.128C16.5209 15.308 16.3019 15.488 16.0919 15.668C15.8879 15.848 15.7259 16.046 15.6059 16.262C15.4499 16.544 15.3599 16.805 15.3359 17.045C15.3179 17.279 15.3089 17.588 15.3089 17.972H13.6079ZM13.6169 21.5V19.529H15.3089V21.5H13.6169Z" fill="black"/>
</svg>
