<svg width="12" height="16" viewBox="0 0 12 16" fill="none" xmlns="http://www.w3.org/2000/svg">
<path d="M3.07548 0.500006C3.66711 0.499298 4.24095 0.702347 4.70048 1.075L11.0755 6.33751C11.3255 6.53653 11.5274 6.78936 11.6661 7.0772C11.8049 7.36504 11.877 7.68047 11.877 8.00001C11.877 8.31955 11.8049 8.63497 11.6661 8.92281C11.5274 9.21065 11.3255 9.46348 11.0755 9.66251L4.70048 14.925C4.31669 15.2325 3.85423 15.426 3.36581 15.4835C2.87739 15.5409 2.38266 15.46 1.93798 15.25C1.55151 15.0797 1.22224 14.8017 0.989506 14.4492C0.756767 14.0968 0.630394 13.6848 0.625478 13.2625L0.625477 2.73751C0.630393 2.31519 0.756766 1.90321 0.989505 1.55078C1.22224 1.19835 1.55151 0.920356 1.93798 0.750007C2.29495 0.586418 2.68281 0.501172 3.07548 0.500006Z" fill="white"/>
</svg>
